<svg width="201" height="55" viewBox="0 0 201 55" fill="none" xmlns="http://www.w3.org/2000/svg">
<line x1="6.98478e-08" y1="54.201" x2="201" y2="54.2011" stroke="#F2F7FB" stroke-width="1.59793"/>
<path d="M168.858 0.633972L170.61 1.07771e-05L174.413 10.51L172.662 11.144L168.858 0.633972Z" fill="#065799"/>
<path d="M172.144 15.2813L177.433 13.3499L176.813 11.61L174.119 9.64407L172.356 10.2879L171.524 13.5415L172.144 15.2813Z" fill="#FF9430"/>
<path d="M181.695 47.4453L190.596 44.2126L179.402 12.9623C179.298 12.6725 179.081 12.4371 178.799 12.308C178.517 12.1789 178.193 12.1665 177.898 12.2737L171.222 14.6983C170.927 14.8054 170.685 15.0233 170.55 15.304C170.415 15.5847 170.397 15.9052 170.501 16.195L181.695 47.4453Z" fill="#81BCEC"/>
<path d="M190.746 50.1334L185.453 52.0664L183.589 46.8426L188.883 44.9095L190.746 50.1334Z" fill="#FF9430"/>
<path d="M179.769 47.2298L192.048 42.7658L192.665 44.4912L180.386 48.9552L179.769 47.2298Z" fill="#065799"/>
<path d="M180.753 28.043L184.271 26.7589L184.89 28.4944L181.372 29.7784L180.753 28.043Z" fill="#065799"/>
<path d="M184.557 38.553L188.075 37.269L188.694 39.0044L185.176 40.2885L184.557 38.553Z" fill="#065799"/>
<path d="M180.903 33.9355L186.174 32.0139L186.792 33.7457L181.521 35.6674L180.903 33.9355Z" fill="#065799"/>
<path d="M176.949 17.533L180.468 16.2489L181.086 17.9843L177.568 19.2684L176.949 17.533Z" fill="#065799"/>
<path d="M177.1 23.4255L182.371 21.5038L182.988 23.2357L177.717 25.1574L177.1 23.4255Z" fill="#065799"/>
<path d="M182.547 52.1612L193.07 48.3377L193.691 50.0696L183.167 53.8931L182.547 52.1612Z" fill="#065799"/>
<path d="M159.91 20.4532V25.1103L156.564 27.7874C156.155 28.1146 155.825 28.5296 155.598 29.0018C155.371 29.4739 155.253 29.991 155.253 30.5148V51.6561C155.253 52.2737 155.498 52.866 155.935 53.3027C156.372 53.7394 156.964 53.9847 157.582 53.9847H172.484C173.102 53.9847 173.694 53.7394 174.131 53.3027C174.568 52.866 174.813 52.2737 174.813 51.6561V30.5148C174.813 29.991 174.695 29.4739 174.468 29.0018C174.241 28.5296 173.911 28.1146 173.502 27.7874L170.156 25.1103V20.4532H159.91Z" fill="#81BCEC"/>
<path d="M155.253 32.5618H174.813V49.3275H155.253V32.5618Z" fill="#065799"/>
<path d="M170.854 16.7274H159.212C158.569 16.7274 158.047 17.2487 158.047 17.8917V20.2203C158.047 20.8633 158.569 21.3846 159.212 21.3846H170.854C171.497 21.3846 172.019 20.8633 172.019 20.2203V17.8917C172.019 17.2487 171.497 16.7274 170.854 16.7274Z" fill="#FF9430"/>
<path d="M164.567 45.6018C167.139 45.6018 169.224 43.5167 169.224 40.9446C169.224 38.3726 167.139 36.2875 164.567 36.2875C161.995 36.2875 159.91 38.3726 159.91 40.9446C159.91 43.5167 161.995 45.6018 164.567 45.6018Z" fill="#FF9430"/>
<path d="M167.362 40.0132H165.499V38.1503H163.636V40.0132H161.773V41.8761H163.636V43.7389H165.499V41.8761H167.362V40.0132Z" fill="#FFF9F8"/>
<path d="M152.027 11.8892L152.759 13.2294L154.1 13.9623L152.759 14.6953L152.027 16.0354L151.294 14.6953L149.953 13.9623L151.294 13.2294L152.027 11.8892Z" fill="#065799"/>
<path d="M157.624 8.98688L157.111 9.925L156.173 10.438L157.111 10.9511L157.624 11.8892L158.137 10.9511L159.075 10.438L158.137 9.925L157.624 8.98688Z" fill="#065799"/>
<path d="M5.30729 46.713L0.250046 31.0243H3.71145L6.04903 38.554L7.28524 43.4764H7.35267L8.54393 38.554L10.8815 31.0243H14.2305L9.12833 46.713H5.30729Z" fill="#065799"/>
<path d="M24.7424 46.713L23.6186 42.9819H18.3815L17.2577 46.713H13.7963L18.9659 31.0243H23.1915L28.2937 46.713H24.7424ZM21.0338 34.1261H20.9214L19.1907 40.0824H22.7869L21.0338 34.1261Z" fill="#065799"/>
<path d="M36.1223 46.9827C35.0584 46.9827 34.0994 46.8179 33.2453 46.4882C32.3912 46.1436 31.6644 45.6416 31.065 44.9823C30.4657 44.308 30.0011 43.4764 29.6715 42.4874C29.3418 41.4834 29.177 40.3146 29.177 38.981C29.177 37.6624 29.3418 36.4936 29.6715 35.4747C30.0011 34.4407 30.4657 33.5791 31.065 32.8898C31.6644 32.1856 32.3912 31.6536 33.2453 31.294C34.0994 30.9344 35.0584 30.7546 36.1223 30.7546C37.5758 30.7546 38.7745 31.0543 39.7185 31.6536C40.6626 32.238 41.4193 33.1671 41.9887 34.4407L39.0442 35.9692C38.8345 35.3098 38.5048 34.7854 38.0553 34.3958C37.6207 33.9912 36.9764 33.7889 36.1223 33.7889C35.1183 33.7889 34.3092 34.1186 33.6948 34.7779C33.0954 35.4222 32.7957 36.3662 32.7957 37.6099V40.1273C32.7957 41.371 33.0954 42.3226 33.6948 42.9819C34.3092 43.6262 35.1183 43.9484 36.1223 43.9484C36.9614 43.9484 37.6282 43.7236 38.1227 43.2741C38.6322 42.8095 39.0068 42.2551 39.2465 41.6108L42.0336 43.2291C41.4492 44.4279 40.6775 45.3569 39.7185 46.0162C38.7745 46.6605 37.5758 46.9827 36.1223 46.9827Z" fill="#065799"/>
<path d="M47.6611 31.0243V40.6443C47.6611 41.7531 47.8783 42.5848 48.3129 43.1392C48.7474 43.6786 49.4742 43.9484 50.4931 43.9484C51.5121 43.9484 52.2388 43.6786 52.6734 43.1392C53.1079 42.5848 53.3252 41.7531 53.3252 40.6443V31.0243H56.6517V40.2847C56.6517 41.4385 56.5393 42.4424 56.3146 43.2965C56.1048 44.1357 55.7527 44.8324 55.2582 45.3869C54.7637 45.9263 54.1268 46.3309 53.3477 46.6006C52.5685 46.8553 51.617 46.9827 50.4931 46.9827C49.3693 46.9827 48.4178 46.8553 47.6386 46.6006C46.8594 46.3309 46.2225 45.9263 45.7281 45.3869C45.2336 44.8324 44.874 44.1357 44.6492 43.2965C44.4394 42.4424 44.3345 41.4385 44.3345 40.2847V31.0243H47.6611Z" fill="#065799"/>
<path d="M64.8183 39.2957L63.3124 36.149H63.2449V46.713H60.0308V31.0243H63.7619L68.0549 38.4416L69.5609 41.5883H69.6283V31.0243H72.8425V46.713H69.1114L64.8183 39.2957Z" fill="#065799"/>
<path d="M85.9606 46.713L84.8368 42.9819H79.5997L78.4759 46.713H75.0145L80.1841 31.0243H84.4097L89.5119 46.713H85.9606ZM82.2519 34.1261H82.1396L80.4089 40.0824H84.0051L82.2519 34.1261Z" fill="#065799"/>
<path d="M97.3405 46.9827C96.2766 46.9827 95.3176 46.8179 94.4634 46.4882C93.6093 46.1436 92.8826 45.6416 92.2832 44.9823C91.6838 44.308 91.2193 43.4764 90.8897 42.4874C90.56 41.4834 90.3952 40.3146 90.3952 38.981C90.3952 37.6624 90.56 36.4936 90.8897 35.4747C91.2193 34.4407 91.6838 33.5791 92.2832 32.8898C92.8826 32.1856 93.6093 31.6536 94.4634 31.294C95.3176 30.9344 96.2766 30.7546 97.3405 30.7546C98.7939 30.7546 99.9927 31.0543 100.937 31.6536C101.881 32.238 102.637 33.1671 103.207 34.4407L100.262 35.9692C100.053 35.3098 99.723 34.7854 99.2734 34.3958C98.8389 33.9912 98.1946 33.7889 97.3405 33.7889C96.3365 33.7889 95.5273 34.1186 94.913 34.7779C94.3136 35.4222 94.0139 36.3662 94.0139 37.6099V40.1273C94.0139 41.371 94.3136 42.3226 94.913 42.9819C95.5273 43.6262 96.3365 43.9484 97.3405 43.9484C98.1796 43.9484 98.8464 43.7236 99.3409 43.2741C99.8503 42.8095 100.225 42.2551 100.465 41.6108L103.252 43.2291C102.667 44.4279 101.896 45.3569 100.937 46.0162C99.9927 46.6605 98.7939 46.9827 97.3405 46.9827Z" fill="#065799"/>
<path d="M105.036 46.713V43.9933H107.059V33.744H105.036V31.0243H112.498V33.744H110.475V43.9933H112.498V46.713H105.036Z" fill="#065799"/>
<path d="M121.638 46.9827C120.604 46.9827 119.66 46.8104 118.806 46.4658C117.952 46.1211 117.225 45.6116 116.626 44.9373C116.026 44.2481 115.562 43.4014 115.232 42.3975C114.902 41.3785 114.738 40.2023 114.738 38.8686C114.738 37.535 114.902 36.3662 115.232 35.3623C115.562 34.3433 116.026 33.4967 116.626 32.8224C117.225 32.1331 117.952 31.6162 118.806 31.2715C119.66 30.9269 120.604 30.7546 121.638 30.7546C122.672 30.7546 123.616 30.9269 124.47 31.2715C125.324 31.6162 126.051 32.1331 126.65 32.8224C127.25 33.4967 127.714 34.3433 128.044 35.3623C128.373 36.3662 128.538 37.535 128.538 38.8686C128.538 40.2023 128.373 41.3785 128.044 42.3975C127.714 43.4014 127.25 44.2481 126.65 44.9373C126.051 45.6116 125.324 46.1211 124.47 46.4658C123.616 46.8104 122.672 46.9827 121.638 46.9827ZM121.638 43.9484C122.672 43.9484 123.473 43.6112 124.043 42.9369C124.627 42.2626 124.919 41.2961 124.919 40.0374V37.6999C124.919 36.4412 124.627 35.4747 124.043 34.8004C123.473 34.1261 122.672 33.7889 121.638 33.7889C120.604 33.7889 119.795 34.1261 119.21 34.8004C118.641 35.4747 118.356 36.4412 118.356 37.6999V40.0374C118.356 41.2961 118.641 42.2626 119.21 42.9369C119.795 43.6112 120.604 43.9484 121.638 43.9484ZM121.998 30.0803L120.02 29.1138L122.245 24.7533L125.009 26.1244L121.998 30.0803Z" fill="#065799"/>
<path d="M136.177 39.2957L134.671 36.149H134.604V46.713H131.39V31.0243H135.121L139.414 38.4416L140.92 41.5883H140.987V31.0243H144.201V46.713H140.47L136.177 39.2957Z" fill="#065799"/>
<path d="M0.967468 24.6164V15.4647H5.29423C5.72253 15.4647 6.10713 15.539 6.44803 15.6876C6.78892 15.8274 7.07737 16.0241 7.31338 16.2776C7.55813 16.5311 7.74605 16.8414 7.87717 17.2085C8.00828 17.5669 8.07384 17.9602 8.07384 18.3885C8.07384 18.8256 8.00828 19.2233 7.87717 19.5817C7.74605 19.94 7.55813 20.246 7.31338 20.4995C7.07737 20.7529 6.78892 20.954 6.44803 21.1026C6.10713 21.2424 5.72253 21.3124 5.29423 21.3124H2.9604V24.6164H0.967468ZM2.9604 19.5817H5.05822C5.35541 19.5817 5.58705 19.5074 5.75312 19.3588C5.92794 19.2014 6.01535 18.9742 6.01535 18.677V18.1001C6.01535 17.8029 5.92794 17.58 5.75312 17.4314C5.58705 17.2741 5.35541 17.1954 5.05822 17.1954H2.9604V19.5817Z" fill="#065799"/>
<path d="M12.0036 24.7738C11.4966 24.7738 11.0421 24.6907 10.64 24.5246C10.2466 24.3586 9.91012 24.1182 9.63041 23.8035C9.35944 23.4888 9.14966 23.1086 9.00106 22.6628C8.85246 22.217 8.77817 21.7188 8.77817 21.1681C8.77817 20.6175 8.85246 20.1192 9.00106 19.6734C9.14966 19.2276 9.35944 18.8518 9.63041 18.5459C9.91012 18.2312 10.2466 17.9908 10.64 17.8247C11.0421 17.6587 11.4966 17.5756 12.0036 17.5756C12.5105 17.5756 12.9607 17.6587 13.354 17.8247C13.7561 17.9908 14.0926 18.2312 14.3636 18.5459C14.6433 18.8518 14.8575 19.2276 15.0061 19.6734C15.1547 20.1192 15.229 20.6175 15.229 21.1681C15.229 21.7188 15.1547 22.217 15.0061 22.6628C14.8575 23.1086 14.6433 23.4888 14.3636 23.8035C14.0926 24.1182 13.7561 24.3586 13.354 24.5246C12.9607 24.6907 12.5105 24.7738 12.0036 24.7738ZM12.0036 23.2397C12.3882 23.2397 12.6854 23.1217 12.8951 22.8857C13.1049 22.6497 13.2098 22.3132 13.2098 21.8761V20.4732C13.2098 20.0362 13.1049 19.6997 12.8951 19.4637C12.6854 19.2276 12.3882 19.1096 12.0036 19.1096C11.619 19.1096 11.3218 19.2276 11.112 19.4637C10.9022 19.6997 10.7973 20.0362 10.7973 20.4732V21.8761C10.7973 22.3132 10.9022 22.6497 11.112 22.8857C11.3218 23.1217 11.619 23.2397 12.0036 23.2397Z" fill="#065799"/>
<path d="M16.6116 24.6164V17.7329H18.5521V19.2276H18.6176C18.6526 19.0353 18.7138 18.8518 18.8012 18.677C18.8886 18.4934 19.0022 18.3317 19.1421 18.1918C19.2907 18.052 19.4655 17.9427 19.6666 17.8641C19.8676 17.7767 20.1036 17.7329 20.3746 17.7329H20.7155V19.5423H20.2303C19.6622 19.5423 19.2383 19.6166 18.9585 19.7652C18.6876 19.9138 18.5521 20.1891 18.5521 20.5912V24.6164H16.6116Z" fill="#065799"/>
<path d="M24.3762 24.6164C23.7032 24.6164 23.1918 24.446 22.8422 24.1051C22.5013 23.7642 22.3308 23.266 22.3308 22.6104V19.2408H21.3606V17.7329H21.8457C22.1079 17.7329 22.2871 17.6718 22.3833 17.5494C22.4794 17.4183 22.5275 17.2347 22.5275 16.9987V15.8711H24.2713V17.7329H25.6349V19.2408H24.2713V23.1086H25.53V24.6164H24.3762Z" fill="#065799"/>
<path d="M32.0701 24.6164C31.7205 24.6164 31.4277 24.5072 31.1917 24.2886C30.9644 24.0701 30.8202 23.7773 30.759 23.4102H30.6803C30.5754 23.856 30.3438 24.1969 29.9854 24.4329C29.627 24.6601 29.1856 24.7738 28.6612 24.7738C27.9706 24.7738 27.4418 24.5902 27.0747 24.2231C26.7076 23.856 26.524 23.3708 26.524 22.7677C26.524 22.0422 26.7862 21.5047 27.3107 21.155C27.8439 20.7966 28.565 20.6175 29.4741 20.6175H30.5623V20.1848C30.5623 19.8526 30.4749 19.5904 30.3001 19.3981C30.1253 19.1971 29.8325 19.0965 29.4216 19.0965C29.037 19.0965 28.7311 19.1796 28.5038 19.3457C28.2766 19.5117 28.0886 19.6997 27.94 19.9094L26.7862 18.8868C27.066 18.4759 27.4156 18.1569 27.8352 17.9296C28.2635 17.6936 28.8404 17.5756 29.5659 17.5756C30.5448 17.5756 31.2791 17.7898 31.7686 18.2181C32.2581 18.6464 32.5028 19.2714 32.5028 20.093V23.1086H33.1453V24.6164H32.0701ZM29.3823 23.4233C29.7057 23.4233 29.9811 23.3534 30.2083 23.2135C30.4443 23.0737 30.5623 22.8464 30.5623 22.5317V21.7188H29.6183C28.8578 21.7188 28.4776 21.9767 28.4776 22.4924V22.6891C28.4776 22.9425 28.5563 23.1305 28.7136 23.2528C28.871 23.3665 29.0938 23.4233 29.3823 23.4233Z" fill="#065799"/>
<path d="M36.3751 24.6164C35.7108 24.6164 35.2213 24.4547 34.9066 24.1313C34.6007 23.8079 34.4477 23.3403 34.4477 22.7284V14.914H36.3882V23.1086H37.2535V24.6164H36.3751Z" fill="#065799"/>
<path d="M45.7374 23.4626H45.6719C45.6194 23.6462 45.5364 23.821 45.4227 23.9871C45.3091 24.1444 45.1693 24.2843 45.0032 24.4066C44.8459 24.5203 44.6623 24.6077 44.4525 24.6689C44.2515 24.7388 44.0417 24.7738 43.8232 24.7738C42.9491 24.7738 42.2891 24.4678 41.8433 23.856C41.3976 23.2354 41.1747 22.3394 41.1747 21.1681C41.1747 19.9968 41.3976 19.1053 41.8433 18.4934C42.2891 17.8815 42.9491 17.5756 43.8232 17.5756C44.2689 17.5756 44.6623 17.698 45.0032 17.9427C45.3528 18.1875 45.5757 18.5022 45.6719 18.8868H45.7374V14.914H47.6779V24.6164H45.7374V23.4626ZM44.4656 23.2004C44.8327 23.2004 45.1343 23.113 45.3703 22.9382C45.615 22.7546 45.7374 22.5055 45.7374 22.1908V20.1586C45.7374 19.8439 45.615 19.5991 45.3703 19.4243C45.1343 19.2408 44.8327 19.149 44.4656 19.149C44.0985 19.149 43.7926 19.2801 43.5478 19.5423C43.3118 19.7958 43.1938 20.1411 43.1938 20.5781V21.7713C43.1938 22.2083 43.3118 22.5579 43.5478 22.8202C43.7926 23.0737 44.0985 23.2004 44.4656 23.2004Z" fill="#065799"/>
<path d="M52.3639 24.7738C51.8394 24.7738 51.3718 24.6907 50.961 24.5246C50.5502 24.3498 50.2005 24.1095 49.9121 23.8035C49.6324 23.4888 49.4182 23.1086 49.2696 22.6628C49.1298 22.217 49.0598 21.7188 49.0598 21.1681C49.0598 20.6262 49.1298 20.1367 49.2696 19.6997C49.4095 19.2539 49.6149 18.8736 49.8858 18.559C50.1656 18.2443 50.5064 18.0039 50.9085 17.8378C51.3106 17.663 51.7695 17.5756 52.2852 17.5756C52.8534 17.5756 53.3385 17.6718 53.7406 17.8641C54.1514 18.0564 54.4836 18.3142 54.7371 18.6376C54.9993 18.961 55.1872 19.3369 55.3008 19.7652C55.4232 20.1848 55.4844 20.6262 55.4844 21.0895V21.6664H51.0659V21.7713C51.0659 22.2258 51.1882 22.5885 51.433 22.8595C51.6777 23.1217 52.0623 23.2528 52.5868 23.2528C52.9889 23.2528 53.3167 23.1742 53.5701 23.0168C53.8236 22.8508 54.0596 22.6541 54.2782 22.4268L55.2484 23.6331C54.9425 23.9915 54.5404 24.2712 54.0422 24.4722C53.5527 24.6732 52.9932 24.7738 52.3639 24.7738ZM52.3246 19.0048C51.9312 19.0048 51.6209 19.1359 51.3937 19.3981C51.1751 19.6516 51.0659 19.9925 51.0659 20.4208V20.5257H53.4784V20.4077C53.4784 19.9881 53.3822 19.6516 53.1899 19.3981C53.0064 19.1359 52.7179 19.0048 52.3246 19.0048Z" fill="#065799"/>
<path d="M62.7331 24.7738C62.2173 24.7738 61.7584 24.6907 61.3564 24.5246C60.9543 24.3498 60.6178 24.1095 60.3468 23.8035C60.0758 23.4888 59.8704 23.1086 59.7306 22.6628C59.5907 22.217 59.5208 21.7188 59.5208 21.1681C59.5208 20.6175 59.5907 20.1236 59.7306 19.6865C59.8704 19.2408 60.0758 18.8605 60.3468 18.5459C60.6178 18.2312 60.9543 17.9908 61.3564 17.8247C61.7584 17.6587 62.2173 17.5756 62.7331 17.5756C63.4323 17.5756 64.0136 17.7329 64.4769 18.0476C64.9489 18.3623 65.2854 18.8037 65.4865 19.3719L63.9131 20.0537C63.8519 19.7914 63.7252 19.5685 63.5329 19.385C63.3406 19.2014 63.074 19.1096 62.7331 19.1096C62.3397 19.1096 62.0425 19.2408 61.8415 19.503C61.6404 19.7565 61.5399 20.1017 61.5399 20.5388V21.8237C61.5399 22.2607 61.6404 22.606 61.8415 22.8595C62.0425 23.113 62.3397 23.2397 62.7331 23.2397C63.0827 23.2397 63.358 23.148 63.5591 22.9644C63.7689 22.7721 63.9218 22.523 64.018 22.217L65.5258 22.8726C65.2985 23.5282 64.9445 24.0089 64.4638 24.3149C63.9918 24.6208 63.4149 24.7738 62.7331 24.7738Z" fill="#065799"/>
<path d="M69.4555 24.7738C68.9485 24.7738 68.494 24.6907 68.0919 24.5246C67.6986 24.3586 67.3621 24.1182 67.0824 23.8035C66.8114 23.4888 66.6016 23.1086 66.453 22.6628C66.3044 22.217 66.2301 21.7188 66.2301 21.1681C66.2301 20.6175 66.3044 20.1192 66.453 19.6734C66.6016 19.2276 66.8114 18.8518 67.0824 18.5459C67.3621 18.2312 67.6986 17.9908 68.0919 17.8247C68.494 17.6587 68.9485 17.5756 69.4555 17.5756C69.9625 17.5756 70.4126 17.6587 70.806 17.8247C71.2081 17.9908 71.5446 18.2312 71.8156 18.5459C72.0953 18.8518 72.3094 19.2276 72.458 19.6734C72.6066 20.1192 72.6809 20.6175 72.6809 21.1681C72.6809 21.7188 72.6066 22.217 72.458 22.6628C72.3094 23.1086 72.0953 23.4888 71.8156 23.8035C71.5446 24.1182 71.2081 24.3586 70.806 24.5246C70.4126 24.6907 69.9625 24.7738 69.4555 24.7738ZM69.4555 23.2397C69.8401 23.2397 70.1373 23.1217 70.3471 22.8857C70.5569 22.6497 70.6618 22.3132 70.6618 21.8761V20.4732C70.6618 20.0362 70.5569 19.6997 70.3471 19.4637C70.1373 19.2276 69.8401 19.1096 69.4555 19.1096C69.0709 19.1096 68.7737 19.2276 68.5639 19.4637C68.3541 19.6997 68.2493 20.0362 68.2493 20.4732V21.8761C68.2493 22.3132 68.3541 22.6497 68.5639 22.8857C68.7737 23.1217 69.0709 23.2397 69.4555 23.2397Z" fill="#065799"/>
<path d="M74.0635 24.6164V17.7329H76.004V18.8999H76.0827C76.2051 18.5415 76.4192 18.2312 76.7252 17.969C77.0311 17.7067 77.455 17.5756 77.997 17.5756C78.705 17.5756 79.2382 17.8116 79.5965 18.2836C79.9637 18.7556 80.1472 19.4287 80.1472 20.3028V24.6164H78.2067V20.4601C78.2067 20.0143 78.1368 19.6865 77.997 19.4768C77.8571 19.2582 77.608 19.149 77.2496 19.149C77.0923 19.149 76.9393 19.1708 76.7907 19.2145C76.6421 19.2495 76.5066 19.3107 76.3843 19.3981C76.2706 19.4855 76.1788 19.5948 76.1089 19.7259C76.039 19.8483 76.004 19.9925 76.004 20.1586V24.6164H74.0635Z" fill="#065799"/>
<path d="M84.2079 24.7738C83.5436 24.7738 82.9841 24.6689 82.5296 24.4591C82.0751 24.2406 81.6686 23.9346 81.3102 23.5413L82.4509 22.3875C82.6957 22.6585 82.9667 22.8726 83.2639 23.0299C83.561 23.1873 83.8976 23.266 84.2734 23.266C84.658 23.266 84.9246 23.2091 85.0732 23.0955C85.2218 22.9731 85.2961 22.8114 85.2961 22.6104C85.2961 22.287 85.0645 22.0947 84.6012 22.0335L83.8539 21.9417C82.3067 21.7494 81.5331 21.0414 81.5331 19.8177C81.5331 19.4855 81.5943 19.1839 81.7167 18.913C81.8478 18.6333 82.027 18.3973 82.2543 18.205C82.4903 18.0039 82.77 17.851 83.0934 17.7461C83.4256 17.6324 83.797 17.5756 84.2079 17.5756C84.5662 17.5756 84.8809 17.6018 85.1519 17.6543C85.4316 17.698 85.6763 17.7679 85.8861 17.8641C86.1046 17.9515 86.3013 18.0651 86.4761 18.205C86.6597 18.3361 86.8389 18.4847 87.0137 18.6507L85.8992 19.7914C85.6807 19.5729 85.4316 19.4025 85.1519 19.2801C84.8809 19.149 84.6012 19.0834 84.3128 19.0834C83.9806 19.0834 83.7446 19.1359 83.6047 19.2408C83.4649 19.3456 83.395 19.4855 83.395 19.6603C83.395 19.8439 83.443 19.9881 83.5392 20.093C83.6441 20.1891 83.8364 20.2591 84.1161 20.3028L84.8897 20.4077C86.4018 20.6087 87.1579 21.2992 87.1579 22.4793C87.1579 22.8114 87.088 23.1174 86.9482 23.3971C86.8083 23.6768 86.6073 23.9215 86.345 24.1313C86.0915 24.3323 85.7812 24.4897 85.4141 24.6033C85.0557 24.7169 84.6537 24.7738 84.2079 24.7738Z" fill="#065799"/>
<path d="M92.5455 23.4626H92.4799C92.4187 23.6374 92.3357 23.8035 92.2308 23.9609C92.1347 24.1182 92.0079 24.258 91.8506 24.3804C91.6932 24.5028 91.5053 24.5989 91.2868 24.6689C91.077 24.7388 90.8323 24.7738 90.5526 24.7738C89.8445 24.7738 89.307 24.5421 88.9398 24.0789C88.5815 23.6069 88.4023 22.9338 88.4023 22.0597V17.7329H90.3428V21.8893C90.3428 22.3088 90.4171 22.6322 90.5657 22.8595C90.7143 23.0868 90.9677 23.2004 91.3261 23.2004C91.4747 23.2004 91.6233 23.1785 91.7719 23.1348C91.9205 23.0911 92.0516 23.03 92.1653 22.9513C92.2789 22.8639 92.3707 22.759 92.4406 22.6366C92.5105 22.5142 92.5455 22.37 92.5455 22.2039V17.7329H94.486V24.6164H92.5455V23.4626Z" fill="#065799"/>
<path d="M98.2188 24.6164C97.5545 24.6164 97.065 24.4547 96.7503 24.1313C96.4444 23.8079 96.2914 23.3403 96.2914 22.7284V14.914H98.2319V23.1086H99.0973V24.6164H98.2188Z" fill="#065799"/>
<path d="M102.609 24.6164C101.936 24.6164 101.425 24.446 101.075 24.1051C100.734 23.7642 100.564 23.266 100.564 22.6104V19.2408H99.5936V17.7329H100.079C100.341 17.7329 100.52 17.6718 100.616 17.5494C100.712 17.4183 100.76 17.2347 100.76 16.9987V15.8711H102.504V17.7329H103.868V19.2408H102.504V23.1086H103.763V24.6164H102.609Z" fill="#065799"/>
<path d="M110.303 24.6164C109.953 24.6164 109.661 24.5072 109.425 24.2886C109.197 24.0701 109.053 23.7773 108.992 23.4102H108.913C108.808 23.856 108.577 24.1969 108.218 24.4329C107.86 24.6601 107.419 24.7738 106.894 24.7738C106.204 24.7738 105.675 24.5902 105.308 24.2231C104.941 23.856 104.757 23.3708 104.757 22.7677C104.757 22.0422 105.019 21.5047 105.544 21.155C106.077 20.7966 106.798 20.6175 107.707 20.6175H108.795V20.1848C108.795 19.8526 108.708 19.5904 108.533 19.3981C108.358 19.1971 108.065 19.0965 107.655 19.0965C107.27 19.0965 106.964 19.1796 106.737 19.3457C106.51 19.5117 106.322 19.6997 106.173 19.9094L105.019 18.8868C105.299 18.4759 105.649 18.1569 106.068 17.9296C106.496 17.6936 107.073 17.5756 107.799 17.5756C108.778 17.5756 109.512 17.7898 110.002 18.2181C110.491 18.6464 110.736 19.2714 110.736 20.093V23.1086H111.378V24.6164H110.303ZM107.615 23.4233C107.939 23.4233 108.214 23.3534 108.441 23.2135C108.677 23.0737 108.795 22.8464 108.795 22.5317V21.7188H107.851C107.091 21.7188 106.711 21.9767 106.711 22.4924V22.6891C106.711 22.9425 106.789 23.1305 106.947 23.2528C107.104 23.3665 107.327 23.4233 107.615 23.4233Z" fill="#065799"/>
<path d="M120.001 23.4626H119.936C119.883 23.6462 119.8 23.821 119.686 23.9871C119.573 24.1444 119.433 24.2843 119.267 24.4066C119.11 24.5203 118.926 24.6077 118.716 24.6689C118.515 24.7388 118.305 24.7738 118.087 24.7738C117.213 24.7738 116.553 24.4678 116.107 23.856C115.661 23.2354 115.438 22.3394 115.438 21.1681C115.438 19.9968 115.661 19.1053 116.107 18.4934C116.553 17.8815 117.213 17.5756 118.087 17.5756C118.533 17.5756 118.926 17.698 119.267 17.9427C119.617 18.1875 119.839 18.5022 119.936 18.8868H120.001V14.914H121.942V24.6164H120.001V23.4626ZM118.729 23.2004C119.096 23.2004 119.398 23.113 119.634 22.9382C119.879 22.7546 120.001 22.5055 120.001 22.1908V20.1586C120.001 19.8439 119.879 19.5991 119.634 19.4243C119.398 19.2408 119.096 19.149 118.729 19.149C118.362 19.149 118.056 19.2801 117.812 19.5423C117.576 19.7958 117.458 20.1411 117.458 20.5781V21.7713C117.458 22.2083 117.576 22.5579 117.812 22.8202C118.056 23.0737 118.362 23.2004 118.729 23.2004Z" fill="#065799"/>
<path d="M126.628 24.7738C126.103 24.7738 125.636 24.6907 125.225 24.5246C124.814 24.3498 124.464 24.1095 124.176 23.8035C123.896 23.4888 123.682 23.1086 123.533 22.6628C123.393 22.217 123.324 21.7188 123.324 21.1681C123.324 20.6262 123.393 20.1367 123.533 19.6997C123.673 19.2539 123.879 18.8736 124.15 18.559C124.429 18.2443 124.77 18.0039 125.172 17.8378C125.574 17.663 126.033 17.5756 126.549 17.5756C127.117 17.5756 127.602 17.6718 128.004 17.8641C128.415 18.0564 128.747 18.3142 129.001 18.6376C129.263 18.961 129.451 19.3369 129.565 19.7652C129.687 20.1848 129.748 20.6262 129.748 21.0895V21.6664H125.33V21.7713C125.33 22.2258 125.452 22.5885 125.697 22.8595C125.941 23.1217 126.326 23.2528 126.851 23.2528C127.253 23.2528 127.58 23.1742 127.834 23.0168C128.087 22.8508 128.323 22.6541 128.542 22.4268L129.512 23.6331C129.206 23.9915 128.804 24.2712 128.306 24.4722C127.816 24.6732 127.257 24.7738 126.628 24.7738ZM126.588 19.0048C126.195 19.0048 125.885 19.1359 125.657 19.3981C125.439 19.6516 125.33 19.9925 125.33 20.4208V20.5257H127.742V20.4077C127.742 19.9881 127.646 19.6516 127.454 19.3981C127.27 19.1359 126.982 19.0048 126.588 19.0048Z" fill="#065799"/>
</svg>
