<svg width="29" height="29" viewBox="0 0 29 29" fill="none" xmlns="http://www.w3.org/2000/svg">
<path d="M23.5625 29H5.4375C2.43419 29 0 26.5658 0 23.5625V5.4375C0 2.43419 2.43419 0 5.4375 0H23.5625C26.5658 0 29 2.43419 29 5.4375V23.5625C29 26.5658 26.5658 29 23.5625 29Z" fill="#065799"/>
<path d="M14.5 12.7941C16.3843 12.7941 17.9118 11.2666 17.9118 9.38235C17.9118 7.49808 16.3843 5.97058 14.5 5.97058C12.6157 5.97058 11.0882 7.49808 11.0882 9.38235C11.0882 11.2666 12.6157 12.7941 14.5 12.7941Z" fill="white"/>
<path d="M17.273 14.5H11.7283C9.49447 14.5 7.67648 16.3178 7.67648 18.5514V20.6839C7.67648 21.037 7.96306 21.3235 8.31617 21.3235H20.6839C21.037 21.3235 21.3235 21.037 21.3235 20.6839V18.5514C21.3248 16.3178 19.5068 14.5 17.273 14.5Z" fill="white"/>
</svg>
