<svg width="21" height="17" viewBox="0 0 21 17" fill="none" xmlns="http://www.w3.org/2000/svg">
<path d="M20.5 9.26089L13.7337 16.0544C13.5163 16.2718 13.2446 16.3805 12.9728 16.3805C12.7011 16.3805 12.4294 16.2718 12.212 16.0544C11.7772 15.6196 11.7772 14.9402 12.212 14.5054L17.1304 9.58697H1.26088C0.66305 9.58697 0.17392 9.09784 0.17392 8.50002C0.17392 7.90219 0.66305 7.41306 1.26088 7.41306H17.1304L12.1848 2.46741C11.75 2.03262 11.75 1.35328 12.1848 0.918494C12.6196 0.483712 13.2989 0.483712 13.7337 0.918494L20.5 7.71197C20.9348 8.14675 20.9348 8.85328 20.5 9.26089Z" fill="#042B41"/>
</svg>
