<svg width="34" height="34" viewBox="0 0 34 34" fill="none" xmlns="http://www.w3.org/2000/svg">
<path d="M27.625 34H6.375C2.85388 34 0 31.1461 0 27.625V6.375C0 2.85388 2.85388 0 6.375 0H27.625C31.1461 0 34 2.85388 34 6.375V27.625C34 31.1461 31.1461 34 27.625 34Z" fill="#FF9430"/>
<path d="M5 4.73407L5.81784 4.00003L10.2146 8.74116L9.39678 9.4752L5 4.73407Z" fill="#042B41"/>
<path d="M9.99139 11.8117L12.4738 9.52891L11.772 8.75336L9.89177 8.35097L9.06429 9.11188L9.28956 11.0361L9.99139 11.8117Z" fill="#042B41"/>
<path d="M22.1921 26.8402L26.4526 22.9469L13.6233 8.85789C13.5043 8.72724 13.3341 8.65321 13.1501 8.65209C12.9661 8.65097 12.7834 8.72286 12.6421 8.85193L9.44675 11.7719C9.3055 11.901 9.2173 12.0766 9.20155 12.2603C9.1858 12.4439 9.24379 12.6205 9.36276 12.7512L22.1921 26.8402Z" fill="white"/>
<path d="M27.8612 26.1195L25.3722 28.4089L23.2605 26.0749L25.7496 23.7856L27.8612 26.1195Z" fill="#042B41"/>
<path d="M21.255 27.1398L26.9836 21.9371L27.6683 22.6843L21.9397 27.887L21.255 27.1398Z" fill="#042B41"/>
<path d="M17.5564 16.6762L19.2018 15.1656L19.8974 15.933L18.252 17.4437L17.5564 16.6762Z" fill="#042B41"/>
<path d="M21.9531 21.4174L23.5985 19.9067L24.2941 20.6742L22.6487 22.1848L21.9531 21.4174Z" fill="#042B41"/>
<path d="M18.9401 19.7885L21.4013 17.5357L22.0926 18.2962L19.6314 20.5489L18.9401 19.7885Z" fill="#042B41"/>
<path d="M13.1597 11.9351L14.8051 10.4245L15.5007 11.1919L13.8553 12.7026L13.1597 11.9351Z" fill="#042B41"/>
<path d="M14.5432 15.0474L17.0044 12.7947L17.6957 13.5551L15.2345 15.8078L14.5432 15.0474Z" fill="#042B41"/>
<path d="M23.8569 29.13L28.767 24.6775L29.4632 25.4362L24.5532 29.8887L23.8569 29.13Z" fill="#042B41"/>
</svg>
